<?xml version="1.0" standalone="no"?>
<!DOCTYPE svg PUBLIC "-//W3C//DTD SVG 20010904//EN"
 "http://www.w3.org/TR/2001/REC-SVG-20010904/DTD/svg10.dtd">
<svg version="1.0" xmlns="http://www.w3.org/2000/svg"
 width="300.000000pt" height="300.000000pt" viewBox="0 0 300.000000 300.000000"
 preserveAspectRatio="xMidYMid meet">
<metadata>
Created by potrace 1.14, written by Peter Selinger 2001-2017
</metadata>
<g transform="translate(0.000000,300.000000) scale(0.100000,-0.100000)"
fill="#000000" stroke="none">
<path d="M1270 2780 c-26 -26 -26 -64 0 -88 20 -18 20 -20 4 -85 -13 -50 -21
-67 -34 -67 -25 0 -70 -38 -70 -60 0 -35 12 -49 47 -56 19 -4 36 -12 38 -18 2
-6 6 -54 10 -106 l6 -96 -69 -12 c-122 -20 -233 -61 -269 -97 l-33 -33 5 -164
c3 -90 10 -226 15 -303 5 -77 17 -277 25 -445 8 -168 18 -324 21 -347 7 -54
34 -87 88 -108 43 -17 44 -17 29 -45 -9 -19 -27 -33 -51 -40 -20 -7 -65 -27
-99 -45 -52 -29 -63 -32 -73 -20 -24 29 -122 57 -200 57 -260 1 -459 -177
-484 -433 -8 -80 10 -162 38 -167 16 -3 18 0 12 19 -30 98 -11 247 42 334 25
42 51 63 39 32 -3 -8 -8 -40 -12 -73 -4 -32 -13 -81 -21 -108 -8 -27 -14 -85
-14 -128 l0 -78 305 0 305 0 0 84 c0 79 -14 216 -27 261 -4 14 7 8 38 -21 76
-73 156 -103 339 -130 230 -33 606 0 765 67 62 26 98 39 101 36 6 -6 24 -183
24 -239 l0 -58 445 0 445 0 0 274 0 274 -42 25 c-167 96 -372 102 -528 16 -30
-17 -74 -50 -97 -72 -38 -36 -43 -39 -43 -20 0 28 -44 110 -71 134 -26 23
-121 59 -154 59 -22 0 -65 34 -65 51 0 12 -102 59 -127 59 -14 0 -21 5 -17 13
4 11 -3 354 -23 1092 -3 133 -10 215 -17 224 -31 39 -212 86 -360 94 l-49 2
-17 64 c-33 119 -33 135 -2 148 65 29 61 79 -8 107 -38 15 -40 18 -40 61 0 37
5 49 30 72 38 33 41 84 8 107 -31 22 -84 20 -108 -4z m40 -237 c0 -65 -3 -84
-11 -73 -9 12 -10 11 -6 -7 3 -13 1 -23 -4 -23 -5 0 -9 8 -9 18 0 24 23 172
27 172 2 0 3 -39 3 -87z m-52 -60 c-3 -34 -6 -38 -28 -35 -14 1 -32 9 -40 18
-13 13 -12 17 10 34 14 11 33 20 43 20 15 0 18 -7 15 -37z m146 14 c9 -15 7
-21 -8 -33 -33 -24 -46 -17 -46 22 0 31 3 35 21 32 12 -2 27 -11 33 -21z
m-105 -109 c2 36 21 25 21 -12 0 -19 5 -38 10 -41 6 -3 10 -16 10 -28 0 -12 9
-47 19 -77 17 -50 17 -55 2 -59 -13 -3 -13 -5 4 -12 16 -6 12 -8 -17 -8 -31
-1 -38 3 -42 22 -8 40 -26 203 -25 228 1 21 2 21 9 -6 6 -24 8 -26 9 -7z m316
-218 c17 -5 58 -17 93 -27 34 -9 70 -25 79 -35 16 -18 15 -20 -3 -39 -27 -26
-175 -76 -294 -99 -206 -40 -394 -35 -489 13 -77 39 -80 71 -11 106 75 39 112
51 222 71 27 5 54 11 60 15 7 3 5 0 -6 -7 -56 -39 -57 -41 -50 -85 6 -37 11
-44 45 -57 97 -39 278 7 279 71 0 44 -21 72 -59 79 -66 11 -57 14 24 8 44 -3
94 -9 110 -14z m-135 -18 c0 -32 -168 -65 -211 -41 l-24 13 25 6 c14 4 33 3
42 -2 25 -12 56 -10 91 6 18 8 41 17 52 19 11 3 21 5 23 6 1 0 2 -3 2 -7z
m-10 -61 c0 -59 -228 -69 -230 -11 0 3 33 4 73 2 61 -3 108 5 155 27 1 0 2 -8
2 -18z m224 -1032 l6 -276 -94 -27 c-138 -39 -248 -56 -367 -56 -114 0 -181
15 -224 49 l-27 20 1 143 c1 79 -4 206 -9 283 -27 366 -51 768 -45 773 2 2 24
-8 48 -22 67 -37 215 -52 350 -36 127 16 292 51 326 70 14 8 17 -24 22 -318 4
-180 9 -451 13 -603z m420 -416 c91 -24 126 -55 126 -115 0 -188 -391 -331
-865 -315 -231 7 -396 54 -482 135 -38 37 -47 63 -39 108 7 36 41 66 111 99
22 10 48 22 57 26 39 19 45 12 51 -68 9 -120 20 -146 70 -171 97 -47 171 -61
322 -62 142 0 243 15 355 54 72 26 177 84 200 111 9 10 12 47 11 115 -1 55 1
100 6 100 4 0 39 -8 77 -17z m-1470 -82 c13 -20 -46 -68 -139 -116 -54 -27
-118 -69 -142 -93 l-45 -43 7 42 c16 91 46 134 115 165 70 31 113 43 187 53 6
0 14 -3 17 -8z m586 -83 c113 -32 167 -40 250 -35 132 7 205 22 339 69 29 10
55 17 56 16 2 -2 6 -31 10 -65 l7 -63 -45 -19 c-166 -71 -407 -88 -592 -41
-144 36 -138 31 -150 143 l-7 58 39 -24 c21 -13 63 -30 93 -39z"/>
<path d="M1302 2290 c0 -14 2 -19 5 -12 2 6 2 18 0 25 -3 6 -5 1 -5 -13z"/>
<path d="M1313 2215 c0 -22 2 -30 4 -17 2 12 2 30 0 40 -3 9 -5 -1 -4 -23z"/>
<path d="M1632 1898 c2 -13 8 -23 13 -23 6 0 11 10 13 23 2 15 -2 22 -13 22
-11 0 -15 -7 -13 -22z"/>
<path d="M983 1874 c-8 -21 13 -42 28 -27 13 13 5 43 -11 43 -6 0 -13 -7 -17
-16z"/>
<path d="M1465 1870 c-8 -14 3 -30 21 -30 8 0 14 9 14 20 0 21 -24 28 -35 10z"/>
<path d="M1290 1831 c0 -25 19 -38 31 -20 12 19 6 33 -14 37 -11 2 -17 -3 -17
-17z"/>
<path d="M1130 1820 c0 -11 7 -20 15 -20 8 0 15 9 15 20 0 11 -7 20 -15 20 -8
0 -15 -9 -15 -20z"/>
<path d="M1097 1663 c-2 -5 -7 -25 -11 -45 -6 -31 -3 -39 13 -47 21 -12 277
-13 396 -2 64 5 70 8 73 30 2 12 1 34 -2 47 l-6 24 -230 0 c-126 0 -231 -3
-233 -7z"/>
<path d="M1270 1260 c-107 -4 -198 -8 -201 -9 -4 0 -4 -21 -1 -46 2 -25 0 -64
-7 -87 -20 -77 -19 -103 5 -106 15 -2 24 -12 28 -33 l6 -29 167 1 c93 0 222 6
288 12 l119 12 -2 100 c-3 113 -10 164 -25 183 -10 13 -43 13 -377 2z m347
-42 c-3 -8 -6 -5 -6 6 -1 11 2 17 5 13 3 -3 4 -12 1 -19z m-60 -14 c-3 -3 -12
-4 -19 -1 -8 3 -5 6 6 6 11 1 17 -2 13 -5z m72 -141 c1 -13 -3 -23 -9 -23 -6
0 -9 28 -9 68 1 66 2 66 10 22 4 -25 8 -55 8 -67z m-422 15 c-3 -8 -6 -5 -6 6
-1 11 2 17 5 13 3 -3 4 -12 1 -19z m397 -58 c-11 -11 -483 -27 -474 -17 3 3
109 9 235 13 127 3 232 8 234 10 10 9 14 3 5 -6z"/>
<path d="M1650 820 c0 -11 6 -20 13 -20 19 0 27 10 20 26 -8 21 -33 17 -33 -6z"/>
<path d="M1006 801 c-9 -14 5 -42 18 -38 15 5 14 39 -1 44 -6 2 -14 0 -17 -6z"/>
<path d="M1486 791 c-9 -14 5 -42 18 -38 15 5 14 39 -1 44 -6 2 -14 0 -17 -6z"/>
<path d="M1317 764 c-14 -15 -6 -34 14 -34 14 0 19 5 17 17 -3 18 -20 27 -31
17z"/>
<path d="M1152 738 c2 -13 8 -23 13 -23 6 0 11 10 13 23 2 15 -2 22 -13 22
-11 0 -15 -7 -13 -22z"/>
<path d="M1826 463 c-12 -12 -6 -43 9 -43 8 0 15 9 15 19 0 21 -13 34 -24 24z"/>
<path d="M1140 440 c0 -11 4 -20 9 -20 11 0 22 26 14 34 -12 12 -23 5 -23 -14z"/>
<path d="M1697 424 c-14 -14 -7 -35 11 -32 9 2 17 10 17 17 0 16 -18 25 -28
15z"/>
<path d="M1240 406 c0 -8 4 -17 9 -20 11 -7 33 18 24 27 -12 12 -33 7 -33 -7z"/>
<path d="M1525 401 c-8 -15 3 -31 21 -31 9 0 14 7 12 17 -4 20 -24 28 -33 14z"/>
<path d="M1366 391 c-9 -14 5 -42 18 -38 15 5 14 39 -1 44 -6 2 -14 0 -17 -6z"/>
</g>
</svg>
